<svg id="Layer_1" data-name="Layer 1" xmlns="http://www.w3.org/2000/svg" viewBox="0 0 32.41 27.77"><defs><style>.cls-1{fill:#ff001f;}.cls-2{fill:#ddd;}.cls-3{fill:#b8b7b7;}.cls-4{fill:#fefdfd;}.cls-5{fill:#fefefe;}</style></defs><title>legs</title><path class="cls-1" d="M27.43,17.17l.07.15a5.91,5.91,0,0,0,.35.7l2.25,4.52c.66,1.33,1.34,2.65,2,4a3.89,3.89,0,0,1,.32.85.56.56,0,0,1,0,.19.21.21,0,0,1-.3.17,1,1,0,0,1-.37-.32,14.93,14.93,0,0,1-1-1.59l-4.53-7.7L26.14,18l-2.65-4.51a7.56,7.56,0,0,0-.55-.87,3.31,3.31,0,0,0-.34-.46.68.68,0,0,0-1-.2,8.19,8.19,0,0,0-1,.72l-.09.06-7.91,6c-.27.2-.54.4-.8.62l-6.9,5.27L1.57,27.18a2.52,2.52,0,0,1-.84.45,1.33,1.33,0,0,1-.59,0c-.15,0-.17-.07-.07-.2a8.53,8.53,0,0,1,.71-.72l6.51-6.16a6.32,6.32,0,0,0,.67-.71A.94.94,0,0,0,8.12,19c-.11-.42-.27-.82-.43-1.23l-.24-.63L4.65,10.07c-.12-.31-.23-.62-.37-.92h0a.07.07,0,0,0,0-.07h0a0,0,0,0,0,0-.05L1.82,2.92a6.55,6.55,0,0,1-.35-1,1.19,1.19,0,0,1,0-.41A.4.4,0,0,1,2,1.13a1.11,1.11,0,0,1,.54.5c.13.2.24.41.36.62h0v0L3,2.45,5.23,7a5,5,0,0,0,.52.91,1.09,1.09,0,0,0,.38.33A1.52,1.52,0,0,0,7,8.3L10.08,8c.31,0,.62,0,.93-.1l4.67-.47,4-.41,3.8-.38,4-.41c.47,0,.94-.1,1.42-.12,0,0,.09,0,.12,0s0,.07-.05.1a10.11,10.11,0,0,1-.93.76C27.08,7.81,26,8.6,25,9.44a3.34,3.34,0,0,0-.75.78.47.47,0,0,0,0,.43c.24.63.56,1.23.85,1.83l.08.16,0,.08,2.18,4.37S27.39,17.16,27.43,17.17ZM8.3,14.47h0a1.68,1.68,0,0,0,.13.33.44.44,0,0,0,0,.07c.29.71.59,1.42.89,2.13a3.36,3.36,0,0,0,.42.77.56.56,0,0,0,.75.2,4.31,4.31,0,0,0,.81-.47l5.59-3.86,1-.69,3.48-2.41c1.05-.73,2.11-1.44,3.15-2.19A2.05,2.05,0,0,0,25,7.88c.07-.1,0-.17-.07-.19a1.19,1.19,0,0,0-.31,0c-.8,0-1.6.14-2.4.22l-3,.29-2.7.26-3,.29-2.2.22c-.42,0-.83.08-1.24.12L7.89,9.3A5.85,5.85,0,0,0,7,9.43a.55.55,0,0,0-.45.7,3.27,3.27,0,0,0,.16.59c.34.94.75,1.85,1.13,2.77.13.32.25.65.41,1C8.28,14.46,8.29,14.48,8.3,14.47Z"/><path class="cls-2" d="M11.75,19.42c.25-.22.53-.42.8-.62l7.91-6,.09-.06a.2.2,0,0,0,.13,0l.75,0,1.5,0a7.56,7.56,0,0,1,.55.87L26.14,18l.06.11-1.14.11-1.33.12-.93.08-1.33.12-1,.08-1.25.12-1,.08L16.93,19,16,19l-1.33.12-1,.08-1.28.12Z"/><path class="cls-2" d="M11,7.92c-.31.05-.62.07-.93.1L7,8.3a1.52,1.52,0,0,1-.82-.11,1.09,1.09,0,0,1-.38-.33A5,5,0,0,1,5.23,7L3,2.45,2.93,2.3s0,0,0,0h0c0-.09,0-.18,0-.27A.36.36,0,0,1,3,1.71a0,0,0,0,0,0-.07c-.13-.21,0-.38.11-.53A3.43,3.43,0,0,1,4.46.25,4.13,4.13,0,0,1,5.91,0a2,2,0,0,1,.54.07.41.41,0,0,1,.3.27s0,.08.07.08a.64.64,0,0,1,.45.24,5.18,5.18,0,0,1,.85,1.09A25.16,25.16,0,0,1,9.64,4.47,25.64,25.64,0,0,1,11,7.88.26.26,0,0,1,11,7.92Z"/><path class="cls-2" d="M27.43,17.17s0-.05-.05-.08l-2.18-4.37,0-.08c.44,0,.87,0,1.31,0a12.38,12.38,0,0,1,1.62.16,1.41,1.41,0,0,1,.52.14h0c.26-.06.41.12.55.29a3.19,3.19,0,0,1,.68,1.94,4,4,0,0,1-.06.94.44.44,0,0,1-.14.22,2.9,2.9,0,0,1-1.36.57C28,17,27.73,17.1,27.43,17.17Z"/><path class="cls-2" d="M4.28,9.15c.15.3.25.61.37.92l2.81,7.11.24.63a5.94,5.94,0,0,1-.48-.59c-.27-.33-.52-.67-.78-1A.6.6,0,0,1,6.32,16l-.95-3.17-.74-2.44L4.29,9.26A.23.23,0,0,1,4.28,9.15Z"/><path class="cls-2" d="M27.85,18a5.91,5.91,0,0,1-.35-.7l2-.18c.14,0,.17,0,.19.16l0,.4c0,.08,0,.14-.11.14l-.87.08-.83.08Z"/><path class="cls-3" d="M4.25,9.07a.07.07,0,0,1,0,.07S4.25,9.1,4.25,9.07Z"/><path class="cls-3" d="M4.23,9a0,0,0,0,1,0,.05A0,0,0,0,1,4.23,9Z"/><path class="cls-2" d="M11.32,8.94c0,.3.14.6.21.9.15.68.29,1.36.37,2.06a5.14,5.14,0,0,1,0,1.35,2.41,2.41,0,0,1-.09.67l.66-.14q1.34-.27,2.69-.49c.7-.11,1.4-.2,2.09-.29l.61-.06-1,.69-5.59,3.86a4.31,4.31,0,0,1-.81.47.56.56,0,0,1-.75-.2A3.36,3.36,0,0,1,9.33,17c-.3-.71-.59-1.42-.89-2.13a.44.44,0,0,1,0-.07.34.34,0,0,0,.21-.08c-.17,0-.25-.15-.34-.25h0l0,0c-.16-.31-.28-.64-.41-1-.38-.92-.78-1.84-1.13-2.77a3.27,3.27,0,0,1-.16-.59A.55.55,0,0,1,7,9.43a5.85,5.85,0,0,1,.85-.13l2.19-.24C10.5,9,10.91,9,11.32,8.94Z"/><path class="cls-4" d="M8.3,14.47c.09.1.16.22.34.25a.34.34,0,0,1-.21.08A1.68,1.68,0,0,1,8.3,14.47Z"/><path class="cls-5" d="M2.93,2.25s0,0,0,0Z"/><path class="cls-4" d="M8.28,14.45l0,0S8.28,14.46,8.28,14.45Z"/></svg>