<svg id="Layer_1" data-name="Layer 1" xmlns="http://www.w3.org/2000/svg" viewBox="0 0 42.3 42.95"><defs><style>.cls-1{fill:#ddd;}.cls-2{fill:red;}</style></defs><title>back</title><path class="cls-1" d="M2.63,27c0-.64,0-1.33,0-2,.06-1.81,0-3.62,0-5.43,0-2.23,0-4.45,0-6.68,0-.2-.08-.24-.26-.26a9.17,9.17,0,0,1-1.94-.26A.57.57,0,0,1,0,11.55a.78.78,0,0,1,.35-.37A4.54,4.54,0,0,1,1,10.91a3.48,3.48,0,0,0,.82-.47,1.3,1.3,0,0,0,.37-.65c.13-.37.22-.74.33-1.12a1.78,1.78,0,0,0,0-.46c0-.07,0-.15.09-.15s.15-.09.16-.19a3.06,3.06,0,0,0,0-.36c0-1.06,0-2.12.06-3.18,0-.59,0-1.18,0-1.77S3,1.28,3,.64C3,.51,3,.38,3,.26A.23.23,0,0,1,3.29,0h.87c.19,0,.27.1.28.27s0,.27,0,.4,0,.15.14.14h33c.26,0,.26,0,.26-.26,0-.55,0-.55.55-.55H39a.22.22,0,0,1,.24.19,1.35,1.35,0,0,1,0,.22c0,.94,0,1.89.05,2.83,0,.71,0,1.42,0,2.13s0,1.14,0,1.71c0,.28,0,.56,0,.84,0,.06,0,.13.09.13s.15.09.16.2a5.46,5.46,0,0,0,.57,2,1.69,1.69,0,0,0,.88.64c.26.12.54.2.79.34a.61.61,0,0,1-.12,1.14,8.37,8.37,0,0,1-1.37.2,4.84,4.84,0,0,1-.56,0c-.16,0-.21.06-.21.22,0,.72,0,1.45,0,2.17,0,1.78,0,3.57,0,5.35,0,1,0,2.07,0,3.1,0,1.84,0,3.69,0,5.53,0,1.22-.11,2.43-.12,3.65,0,.63-.05,1.26-.07,1.89,0,1.47-.08,2.93-.1,4.4,0,.61,0,1.22,0,1.83s0,1.24-.08,1.87c0,.28-.09.35-.38.35s-.46,0-.68,0-.27-.09-.31-.26c-.06-.36,0-.72-.07-1.08s0-.7,0-1c0-1.17,0-2.35,0-3.52,0-.88-.06-1.77-.08-2.65,0-.69,0-1.38-.07-2.07,0-.1,0-.18-.14-.13a.66.66,0,0,1-.2,0H5c-.32,0-.32,0-.33.33,0,1.08,0,2.17-.09,3.25s-.06,2-.07,3,0,2.13,0,3.2c0,.25,0,.51-.07.76a.26.26,0,0,1-.3.27c-.25,0-.51,0-.76,0s-.25-.06-.26-.21S3,42.33,3,42.12c0-.62,0-1.23,0-1.85,0-1.28,0-2.56-.05-3.84,0-.86-.05-1.73-.08-2.59s0-1.69-.08-2.53C2.67,29.88,2.59,28.45,2.63,27Zm24-1.13H37.31c.13,0,.17,0,.17-.17,0-1,0-2,0-3.06,0-.54,0-1.08,0-1.63,0-1.45,0-2.91,0-4.36,0-2.76,0-5.51,0-8.27,0-.13,0-.25.16-.28s.08-.08.08-.14q0-1.7.08-3.39c0-.12,0-.16-.16-.16H34.14C34.09,4,34.09,4,33.65,4s-.42,0-.47.41h-3c-.08-.12.06-.31-.08-.38a1,1,0,0,0-.41,0c-.43,0-.43,0-.47.41H26.65C26.59,4,26.59,4,26.16,4s-.42,0-.47.41H23.11C23.06,4,23.06,4,22.64,4s-.44,0-.49.41H19.58c0-.41,0-.41-.47-.41s-.43,0-.5.4H16C16,4,16,4,15.57,4h0c-.41,0-.41,0-.46.39v0H12.5c0-.41,0-.41-.47-.41s-.44,0-.49.41H8.78C8.73,4,8.73,4,8.31,4s-.44,0-.49.41H4.7c-.14,0-.19,0-.18.18s0,.39,0,.58c0,.92,0,1.84,0,2.75,0,.06,0,.15,0,.16.26.05.2.25.19.42,0,3.23,0,6.46,0,9.69,0,1.37,0,2.75,0,4.12,0,1.12,0,2.24,0,3.36,0,.11,0,.19.15.19H26.64Z"/><path class="cls-2" d="M26.65,4.39q0,5,0,9.92,0,5.64,0,11.29c0,.08,0,.16,0,.24H25.7c0-.09,0-.19,0-.28q0-10.46,0-20.93c0-.08,0-.16,0-.24,0-.41,0-.41.47-.41S26.59,4,26.65,4.39Z"/><path class="cls-2" d="M33.18,25.84c0-.09,0-.19,0-.28q0-10.53,0-21.07s0-.07,0-.1c.05-.41.05-.41.47-.41s.44,0,.49.41q0,5,0,10.06,0,5.56,0,11.13c0,.09,0,.17,0,.26Z"/><path class="cls-2" d="M23.11,4.39q0,4.44,0,8.87,0,6.17,0,12.33c0,.08,0,.16,0,.24h-.95c0-.09,0-.17,0-.26q0-10.54,0-21.09s0-.07,0-.1C22.2,4,22.2,4,22.64,4S23.06,4,23.11,4.39Z"/><path class="cls-2" d="M19.58,4.39q0,4.14,0,8.29,0,6.46,0,12.92c0,.08,0,.16,0,.24h-.95c0-.09,0-.19,0-.28q0-10.58,0-21.17c.06-.4.06-.4.5-.4S19.53,4,19.58,4.39Z"/><path class="cls-2" d="M8.78,4.39q0,4.63,0,9.26,0,6,0,12c0,.08,0,.16,0,.24H7.83c0-.09,0-.19,0-.28q0-10.54,0-21.09s0-.05,0-.08C7.87,4,7.87,4,8.31,4S8.73,4,8.78,4.39Z"/><path class="cls-2" d="M29.23,25.84c0-.09,0-.19,0-.28q0-10.48,0-21c0-.07,0-.13,0-.2,0-.41,0-.41.47-.41a1,1,0,0,1,.41,0c.14.07,0,.26.08.38q0,4.94,0,9.88,0,5.66,0,11.33c0,.08,0,.16,0,.24Z"/><path class="cls-2" d="M16,4.39Q16,9.21,16,14q0,5.78,0,11.57c0,.08,0,.16,0,.24h-.94c0-.09,0-.17,0-.26q0-10.59,0-21.18v0c.05-.39.05-.39.46-.39h0C16,4,16,4,16,4.39Z"/><path class="cls-2" d="M12.5,4.39q0,6.18,0,12.35,0,4.42,0,8.83c0,.09,0,.17,0,.26h-.94c0-.05,0-.11,0-.16q0-10.64,0-21.28C11.59,4,11.59,4,12,4S12.45,4,12.5,4.39Z"/></svg>