<svg id="Layer_1" data-name="Layer 1" xmlns="http://www.w3.org/2000/svg" viewBox="0 0 39.03 48.15"><defs><style>.cls-1{fill:#ff001f;}.cls-2{fill:#ddd;}</style></defs><title>base</title><path class="cls-1" d="M34.69,43.25a5.18,5.18,0,0,1,0,.7.14.14,0,0,1-.16.16H4.6c-.31,0-.31,0-.31-.32s0-.36,0-.54c.13,0,.18,0,.18-.16s0-.43,0-.65c0-.95,0-1.89,0-2.84q0-3,0-5.92,0-5.41,0-10.82,0-4.49,0-9c0-.27-.05-.25.24-.25,1.19,0,2.39,0,3.58,0s2.32,0,3.48,0,2.17,0,3.26,0,2.27,0,3.41,0,2.08,0,3.11,0,2.3,0,3.45,0q1.17,0,2.34,0c.43,0,.86,0,1.3,0,1,0,2,0,3.06,0s1.78,0,2.67,0c.1,0,.17,0,.17.14,0,.49,0,1,0,1.48q0,1.27,0,2.54,0,11.66,0,23.33c0,.65,0,1.3,0,1.95C34.54,43.18,34.56,43.26,34.69,43.25Z" transform="translate(0 0)"/><path class="cls-2" d="M34.69,43.25c-.14,0-.15-.07-.15-.18,0-.65,0-1.3,0-1.95q0-11.66,0-23.33,0-1.27,0-2.54c0-.5,0-1,0-1.48,0-.14-.07-.14-.17-.14-.89,0-1.78,0-2.67,0s-2,0-3.06,0c-.43,0-.87,0-1.3,0q-1.17,0-2.34,0c-1.15,0-2.3,0-3.45,0s-2.08,0-3.11,0-2.27,0-3.41,0-2.17,0-3.26,0-2.32,0-3.48,0-2.39,0-3.58,0c-.3,0-.24,0-.24.25q0,4.49,0,9,0,5.41,0,10.82,0,3,0,5.92c0,.95,0,1.89,0,2.84,0,.22,0,.43,0,.65s-.05.18-.18.16,0,.05,0,.09c0,.23,0,.47,0,.7,0,.82,0,1.63-.05,2.45,0,.44,0,.88-.06,1.31,0,.28-.09.34-.37.34H3.05A.19.19,0,0,1,2.83,48a3.11,3.11,0,0,1-.06-.38c0-.36,0-.72,0-1.07,0-.75,0-1.5,0-2.24,0-.3,0-.59,0-.89,0-.06,0-.14-.08-.14s-.14-.07-.15-.17a2.64,2.64,0,0,1,0-.33c0-1,0-1.92,0-2.88s0-2.08-.08-3.11c0-.7-.05-1.41-.07-2.11q0-1.53-.11-3.05c0-.6,0-1.2-.07-1.79Q2,28.19,1.87,26.58c0-.56-.08-1.12-.11-1.68a22,22,0,0,0-.85-5.19C.64,18.8.34,17.9,0,17a.85.85,0,0,1,0-.13c0-.18,0-.27.22-.27h.85a7.61,7.61,0,0,0,1.05-.08c.14,0,.26-.08.27-.25s0-.1,0-.15c0-.44,0-.88,0-1.32,0-.7,0-1.4,0-2.09,0-1.21,0-2.42.08-3.63,0-.53,0-1.05,0-1.58,0-1.1.09-2.2.15-3.29,0-.75.08-1.5.11-2.26,0-.53,0-1.06.07-1.59C2.91,0,3,0,3.27,0h.45C3.9,0,4,.08,4,.25A6,6,0,0,1,4.05,1c0,.44,0,.88,0,1.32,0,.16.05.19.2.19h30.4c.25,0,.25,0,.25-.25,0-.58,0-1.15.05-1.72S35,0,35.56,0h.2c.31,0,.36,0,.38.36,0,.64.05,1.28.08,1.92,0,1,.11,2.08.17,3.12,0,.26,0,.53,0,.8,0,.52,0,1,0,1.57,0,.73,0,1.46,0,2.19,0,.52,0,1,0,1.56.07,1.36,0,2.72,0,4.08,0,.22,0,.44,0,.67s.14.22.28.24a7.49,7.49,0,0,0,1.26.08h.59c.27,0,.32.07.26.33-.14.52-.35,1-.51,1.53a27.71,27.71,0,0,0-1,4.09c-.08.54-.13,1.08-.16,1.62-.06,1-.14,2.05-.21,3.08,0,.43-.06.86-.08,1.29,0,1-.1,2.06-.12,3.09,0,.64,0,1.27-.07,1.91q-.06,1.63-.11,3.26,0,1.06-.07,2.11c0,1.36,0,2.72,0,4.08,0,.13,0,.28-.18.27,0,0-.07,0-.07.07s0,0,0,.07q0,.87,0,1.74c0,.66,0,1.32,0,2a4.83,4.83,0,0,1-.06.79c0,.15-.1.24-.27.23h-.72c-.17,0-.26-.06-.27-.23s-.05-.4-.06-.61c0-.53,0-1.06,0-1.59,0-.74,0-1.47,0-2.21C34.79,43.42,34.82,43.3,34.69,43.25ZM31.5,8.6c0,1.25,0,2.5,0,3.75,0,.15,0,.2.2.2H34.4c.13,0,.18,0,.18-.17,0-.35,0-.69,0-1,0-.83,0-1.67,0-2.5,0-.23,0-.46,0-.68,0-1.1.07-2.2.13-3.29,0-.15,0-.18-.19-.18H31.69c-.16,0-.19.05-.19.2C31.5,6.12,31.5,7.36,31.5,8.6Zm-24.27,0c0-1.25,0-2.5,0-3.75,0-.16,0-.2-.2-.19H4.41c-.17,0-.21.06-.2.21,0,.57.08,1.13.1,1.7,0,1,.06,2,.08,3s0,1.87,0,2.8c0,.15.05.2.2.2H7c.16,0,.19-.05.19-.2C7.22,11.1,7.22,9.86,7.22,8.62Zm23.39,0c0-1.26,0-2.51,0-3.77,0-.15,0-.19-.19-.19H28c-.14,0-.18,0-.18.18q0,3.76,0,7.51c0,.14,0,.18.18.18h2.37c.17,0,.21,0,.2-.21C30.6,11.1,30.61,9.87,30.61,8.63Zm-22.5,0c0,1.25,0,2.5,0,3.75,0,.13,0,.19.17.18h2.19c.14,0,.18,0,.18-.18q0-3.76,0-7.52c0-.14,0-.18-.18-.18H8.31c-.17,0-.2.05-.2.21C8.11,6.13,8.11,7.37,8.11,8.62Zm9.06,0c0-1.25,0-2.5,0-3.75,0-.15,0-.2-.2-.2H15c-.15,0-.2,0-.2.19q0,3.75,0,7.49c0,.15,0,.19.19.19h2c.16,0,.19-.05.19-.2C17.17,11.1,17.17,9.86,17.17,8.62Zm3.27,0c0-1.26,0-2.51,0-3.77,0-.13,0-.18-.17-.18h-2c-.15,0-.19,0-.19.19q0,3.75,0,7.49c0,.14,0,.19.18.19h2c.16,0,.2,0,.2-.2C20.43,11.11,20.44,9.87,20.44,8.62Zm.89,0c0,1.26,0,2.51,0,3.77,0,.14,0,.19.18.19h2c.14,0,.18,0,.18-.18q0-3.76,0-7.51c0-.15-.05-.18-.19-.18h-2c-.16,0-.21,0-.21.21C21.33,6.12,21.33,7.35,21.33,8.59Zm5.64,0c0-1.24,0-2.49,0-3.73,0-.17,0-.21-.21-.21h-2c-.14,0-.19,0-.19.18q0,3.76,0,7.51c0,.14,0,.18.18.18.67,0,1.34,0,2,0,.17,0,.2-.06.2-.21C27,11.09,27,9.85,27,8.61Zm-13.06,0c0-1.26,0-2.51,0-3.77,0-.15,0-.19-.19-.19h-2c-.15,0-.19,0-.19.19q0,3.75,0,7.5c0,.16.05.18.19.18h2c.17,0,.21,0,.21-.21C13.9,11.1,13.91,9.87,13.91,8.63Z" transform="translate(0 0)"/></svg>