<svg id="Layer_1" data-name="Layer 1" xmlns="http://www.w3.org/2000/svg" viewBox="0 0 32.4 27.77"><defs><style>.cls-1{fill:#ddd;}.cls-2{fill:#ff001f;}.cls-3{fill:#fefefe;}</style></defs><title>cushions</title><path class="cls-1" d="M11,7.89a2.51,2.51,0,0,0,.55,0l1.13-.12L14,7.6l1.08-.11,1.13-.12,1.09-.11,1.36-.14L19.78,7l1.37-.14,1.08-.11,1.37-.14,1.1-.11,1.11-.12,1.07-.11L28,6.18,29,6.1s.09,0,.11,0,0,.08,0,.1a10.56,10.56,0,0,1-1,.82c-.95.74-1.91,1.46-2.83,2.23-.25.21-.49.42-.72.65a1.32,1.32,0,0,0-.24.35.54.54,0,0,0,0,.47c.26.61.56,1.21.85,1.81l.05.08L26.5,15.3l.93,1.86c0,.13.07.18.21.16l1.55-.15.34,0a.11.11,0,0,1,.13.11c0,.16,0,.31,0,.47a.1.1,0,0,1-.1.11l-.53,0L28,18c-.13,0-.1.06-.06.14L29,20.37l1.17,2.35c.57,1.14,1.13,2.27,1.69,3.41a6.16,6.16,0,0,1,.5,1.22.27.27,0,0,1,0,0c0,.12,0,.26-.09.34s-.23,0-.36-.09a3.47,3.47,0,0,1-.64-.84l-2.52-4.26-1.92-3.27-.61-1a.14.14,0,0,0-.15-.08l-1.67.15-2.1.19L21,18.6l-1.82.17-1.3.11L16.67,19l-1,.08-1.34.12-.93.08c-.43,0-.87.11-1.3.11a1.23,1.23,0,0,0-.78.33L8.59,21.83l-4.06,3.1L1.58,27.17a2.41,2.41,0,0,1-.95.48,1.14,1.14,0,0,1-.53,0c-.1,0-.12-.07-.06-.16a1.28,1.28,0,0,1,.13-.15c.72-.73,1.47-1.42,2.22-2.12l1.07-1,2.09-2L6.83,21c.32-.3.63-.6.93-.91A2.3,2.3,0,0,0,8,19.77a1.07,1.07,0,0,0,0-1c-.1-.31-.21-.62-.33-.93a1.21,1.21,0,0,0-.2-.28L6.41,16.18a1.08,1.08,0,0,1-.15-.38l-1-3.26c-.35-1.17-.7-2.35-1.06-3.52-.14-.44-.33-.87-.51-1.3L1.85,3a7.17,7.17,0,0,1-.38-1.13,1.21,1.21,0,0,1,0-.42A.4.4,0,0,1,2,1.13a1.17,1.17,0,0,1,.56.52,5.44,5.44,0,0,1,.3.55s0,.08.07.1L3,2.5l1.1,2.22c.48.95.93,1.91,1.43,2.84a1.21,1.21,0,0,0,1.25.73L8,8.19,10.34,8A5.56,5.56,0,0,0,11,7.89ZM8.3,14.47h0a.56.56,0,0,0,.15.32.19.19,0,0,0,0,.12l.64,1.56a7.93,7.93,0,0,0,.54,1.14c.25.4.47.51.92.3a5,5,0,0,0,.69-.42l5.79-4c.26-.18.52-.34.76-.54a.76.76,0,0,0,.19-.1l4-2.8L24.4,8.42A2.39,2.39,0,0,0,25,7.87c.06-.09,0-.16-.07-.18l-.17,0a4.7,4.7,0,0,0-.65,0l-.88.08-1.18.12L20.93,8l-1.21.12-1.12.11-1.2.12-1.14.11L15,8.57l-.86.08-1.41.14-1.15.11c-.1,0-.21,0-.3.05a7.49,7.49,0,0,0-.78.07L8.1,9.29A7.39,7.39,0,0,0,7,9.44.5.5,0,0,0,6.6,10a1.42,1.42,0,0,0,.06.36A14.9,14.9,0,0,0,7.26,12l1,2.47Zm12.25-1.75-7.68,5.86,0,0,12.89-1.14,0-.08L23.17,13a1.92,1.92,0,0,0-.27-.39.17.17,0,0,0,0-.12,3.66,3.66,0,0,0-.4-.48.59.59,0,0,0-.65-.15,2.26,2.26,0,0,0-.52.29A6.87,6.87,0,0,0,20.55,12.72Z" transform="translate(0 0)"/><path class="cls-2" d="M11,7.89a5.56,5.56,0,0,1-.66.07L8,8.19l-1.17.1a1.21,1.21,0,0,1-1.25-.73c-.5-.94-1-1.9-1.43-2.84L3,2.5,3,2.3A2.88,2.88,0,0,1,2.9,2,.77.77,0,0,1,3,1.68c0-.06-.08-.16-.06-.27a.58.58,0,0,1,.15-.28A3.15,3.15,0,0,1,4.23.34,3.81,3.81,0,0,1,6.31,0c.21,0,.41.1.46.35,0,0,0,0,0,0,.19,0,.31.11.43.21A4,4,0,0,1,8,1.6,25.88,25.88,0,0,1,11,7.89Z" transform="translate(0 0)"/><path class="cls-2" d="M27.43,17.16,26.5,15.3l-1.32-2.65c.41,0,.82,0,1.22,0a13.76,13.76,0,0,1,1.91.19.7.7,0,0,1,.28.1.08.08,0,0,0,.07,0,.42.42,0,0,1,.42.16,2.58,2.58,0,0,1,.6,1,4.11,4.11,0,0,1,.16,1.95c0,.25-.22.37-.4.49a1.92,1.92,0,0,1-.54.21C28.42,16.93,27.92,17,27.43,17.16Z" transform="translate(0 0)"/><path class="cls-2" d="M11.31,9a18.87,18.87,0,0,1,.63,3.45,8.12,8.12,0,0,1-.09,1.51l1.1-.22c1.54-.31,3.1-.55,4.66-.72l.21,0c-.24.2-.51.36-.76.54l-5.79,4a5,5,0,0,1-.69.42c-.45.21-.68.1-.92-.3a7.93,7.93,0,0,1-.54-1.14l-.64-1.56a.19.19,0,0,1,0-.12l.2-.07a.59.59,0,0,1-.35-.25h0l0,0L7.26,12a14.9,14.9,0,0,1-.61-1.59A1.42,1.42,0,0,1,6.6,10,.5.5,0,0,1,7,9.44,7.39,7.39,0,0,1,8.1,9.29L10.53,9A7.49,7.49,0,0,1,11.31,9Z" transform="translate(0 0)"/><path class="cls-2" d="M22.9,12.63a1.92,1.92,0,0,1,.27.39l2.58,4.37,0,.08L12.89,18.61l0,0,7.68-5.86C21.33,12.68,22.12,12.64,22.9,12.63Z" transform="translate(0 0)"/><path class="cls-3" d="M8.28,14.43l0,0Z" transform="translate(0 0)"/></svg>