<svg id="Layer_1" data-name="Layer 1" xmlns="http://www.w3.org/2000/svg" viewBox="0 0 26.27 26.68"><defs><style>.cls-1{fill:#ddd;}.cls-2{fill:red;}</style></defs><title>back</title><path class="cls-1" d="M23.48.51c.06-.08,0-.18,0-.27s0-.24.24-.24h.47a.14.14,0,0,1,.17.13.9.9,0,0,1,0,.12c0,.59,0,1.17,0,1.76s0,.88,0,1.32,0,.71,0,1.06c0,.17,0,.35,0,.52s0,.08.05.08.09.06.1.12A3.39,3.39,0,0,0,25,6.35a1,1,0,0,0,.55.4c.16.08.34.12.49.21a.38.38,0,0,1-.08.71,5.19,5.19,0,0,1-.85.13l-.35,0c-.1,0-.13,0-.13.13,0,.43,0,.86,0,1.29,0,1.13,0,2.26,0,3.39,0,.64,0,1.28,0,1.92,0,1.17,0,2.34,0,3.51,0,.73-.06,1.46-.08,2.19,0,.41,0,.81,0,1.22,0,.89,0,1.79-.06,2.68,0,.42,0,.83,0,1.25s0,.71,0,1.06c0,.16-.06.21-.22.21h-.44c-.13,0-.17-.06-.19-.17s0-.45,0-.67,0-.37,0-.56c0-.76,0-1.52,0-2.27,0-.54,0-1.09,0-1.63s0-.86,0-1.3c0,0,0-.07,0-.09a.5.5,0,0,0,0-.11c0-.22,0-.45,0-.67,0-.69,0-1.38,0-2.07,0-.11,0-.13-.14-.13-.79,0-1.58,0-2.37,0-.6,0-1.2.07-1.79.15s-1.41.24-2.11.39A17.19,17.19,0,0,1,13.5,18a17.16,17.16,0,0,1-3.74-.41,24.86,24.86,0,0,0-4-.58C4.82,17,3.91,17,3,17c-.08,0-.11,0-.11.11,0,.33,0,.66,0,1,0,.58,0,1.15,0,1.73a.23.23,0,0,0,0,.15.2.2,0,0,0,0,.11c0,.41,0,.82,0,1.22,0,.64,0,1.27-.06,1.91,0,.32,0,.63,0,.95,0,.62,0,1.25,0,1.87,0,.16,0,.31,0,.47a.16.16,0,0,1-.19.17H2.08c-.1,0-.17,0-.18-.14s0-.25,0-.37c0-.37,0-.75,0-1.12,0-.8,0-1.61,0-2.41,0-.54,0-1.08-.05-1.62s0-1-.05-1.55c-.08-1.31-.08-2.61-.06-3.92,0-1.11,0-2.22,0-3.32,0-1.42,0-2.83,0-4.25,0-.12,0-.14-.15-.15A6.57,6.57,0,0,1,.31,7.67.37.37,0,0,1,0,7.36.41.41,0,0,1,.23,7a2.2,2.2,0,0,1,.4-.17,1.94,1.94,0,0,0,.51-.29A1,1,0,0,0,1.41,6c.06-.19.11-.37.16-.56a.84.84,0,0,0,0-.26c0-.08,0-.17.11-.16s0,0,0-.07,0-.16,0-.24c0-.67,0-1.33,0-2s0-1.53,0-2.3c0-.09,0-.18,0-.27A.13.13,0,0,1,2,0h.59c.12,0,.14.09.15.18s0,.22,0,.33a.2.2,0,0,0,0,.13c0,.2,0,.4,0,.6,0,.49,0,1,.05,1.48-.07.1,0,.2,0,.3,0,.62,0,1.25,0,1.87,0,0,0,0,0,.06s0,.06,0,.06.11.1.11.19c0,2.07,0,4.13,0,6.2,0,1.51,0,3,0,4.54,0,.09,0,.12.12.12H4.69c.17,0,.17,0,.17-.17q0-5.27,0-10.55,0-1.31,0-2.62c0-.29,0-.26.25-.26h.1c.27,0,.26,0,.25.26q0,1.62,0,3.25,0,5,0,9.93c0,.13,0,.16.16.16H7c.19,0,.17,0,.17-.17q0-6.5,0-13s0-.1,0-.15c0-.27,0-.27.28-.27h0c.27,0,.27,0,.3.27,0,0,0,.09,0,.14q0,1.49,0,3,0,5,0,10.07c0,.11,0,.15.14.15H9.19c.17,0,.17,0,.17-.18q0-6.5,0-13c0-.05,0-.11,0-.16,0-.28-.05-.27.27-.26h0c.28,0,.28,0,.31.27,0,0,0,.09,0,.14q0,1.47,0,2.94,0,5.05,0,10.11c0,.11,0,.15.14.15h1.27c.2,0,.18,0,.18-.18q0-6.5,0-13s0-.1,0-.15a.8.8,0,0,0,0-.11c0-.12,0-.16.16-.15H12c.21,0,.21,0,.21.21a.41.41,0,0,1,0,0q0,1.89,0,3.79,0,4.71,0,9.41c0,.11,0,.15.14.15h1.29c.19,0,.17,0,.17-.18q0-5.13,0-10.26,0-1.45,0-2.9c0-.29,0-.26.25-.26h.1c.26,0,.26,0,.25.26,0,.06,0,.12,0,.17q0,2.09,0,4.19,0,4.41,0,8.81c0,.17,0,.17.17.17h1.26c.17,0,.17,0,.17-.17q0-5.72,0-11.43,0-.87,0-1.74c0-.26,0-.26.24-.26h.1c.31,0,.26,0,.27.26,0,.05,0,.11,0,.16q0,6.5,0,13s0,.06,0,.09,0,.09.08.09h1.42c.07,0,.09,0,.09-.1s0-.42,0-.62V2.71c0-.25,0-.26.21-.26h.12c.26,0,.26,0,.27.26,0,0,0,0,0,0q0,6.59,0,13.17c0,.1,0,.12.12.11h1.56c.17,0,.17,0,.17-.17q0-5.1,0-10.2,0-1.49,0-3c0-.29,0-.26.25-.26H21c.27,0,.26,0,.25.26,0,.06,0,.12,0,.17q0,2,0,4,0,4.52,0,9c0,.13,0,.16.16.16h1.8c.09,0,.12,0,.12-.12,0-.85,0-1.7,0-2.55,0-1.1,0-2.2,0-3.3,0-1.38,0-2.76,0-4.14,0-.26,0-.52,0-.77,0-.06,0-.13.08-.15s.07-.07.07-.12q0-.72,0-1.45c0-.1,0-.2,0-.3a1,1,0,0,0,0-.44.16.16,0,0,0,0-.09q0-1,.05-2A.16.16,0,0,0,23.48.51Z"/><path class="cls-2" d="M2.93,20a.23.23,0,0,1,0-.15c0-.58,0-1.15,0-1.73,0-.33,0-.66,0-1,0-.08,0-.11.11-.11.91,0,1.82,0,2.72,0a24.86,24.86,0,0,1,4,.58A17.16,17.16,0,0,0,13.5,18,17.19,17.19,0,0,0,17,17.56c.7-.15,1.4-.3,2.11-.39S20.25,17,20.85,17c.79,0,1.58,0,2.37,0,.1,0,.13,0,.14.13,0,.69,0,1.38,0,2.07,0,.22,0,.45,0,.67a.5.5,0,0,1,0,.11.57.57,0,0,1-.19,0H2.93Z"/><path class="cls-2" d="M23.48.51a.16.16,0,0,1,0,.12q0,1-.05,2a.16.16,0,0,1,0,.09H21.21c0-.29,0-.26-.25-.26h-.1c-.28,0-.26,0-.25.26H18.76c0-.26,0-.26-.27-.26h-.12c-.24,0-.24,0-.21.26-.53,0-1.06,0-1.6,0,0-.28,0-.26-.27-.26h-.1c-.26,0-.26,0-.24.26-.53,0-1.06,0-1.59,0,0-.26,0-.26-.25-.26H14c-.28,0-.26,0-.25.26h-.86c-.24,0-.49,0-.73,0a.41.41,0,0,0,0,0c0-.21,0-.21-.21-.21h-.25c-.12,0-.17,0-.16.15a.8.8,0,0,1,0,.11H10c0-.27,0-.27-.31-.27h0c-.32,0-.26,0-.27.26H7.78c0-.27,0-.27-.3-.27h0c-.27,0-.27,0-.28.27H5.46c0-.3,0-.26-.25-.26H5.1c-.28,0-.26,0-.25.26h-2c0-.49,0-1-.05-1.48,0-.2,0-.4,0-.6a.2.2,0,0,1,0-.13H23.48Z"/></svg>